<mxfile host="drawio-plugin" modified="2022-02-22T09:35:46.329Z" agent="5.0 (Macintosh; Intel Mac OS X 12_2_1) AppleWebKit/537.36 (KHTML, like Gecko) Chrome/89.0.4389.114 Safari/537.36" etag="67EwxVeAIgLUp85o9vlo" version="15.5.4" type="embed"><diagram id="F44mslXG7EauhRFhVprv" name="Page-2"><mxGraphModel dx="2283" dy="820" grid="1" gridSize="10" guides="1" tooltips="1" connect="1" arrows="1" fold="1" page="1" pageScale="1" pageWidth="850" pageHeight="1100" math="0" shadow="0"><root><mxCell id="AAQ9BwyIkS6VjVYWZHyZ-0"/><mxCell id="AAQ9BwyIkS6VjVYWZHyZ-1" parent="AAQ9BwyIkS6VjVYWZHyZ-0"/><mxCell id="WYw05qr1-3hL1uv3pTQN-0" value="" style="rounded=0;whiteSpace=wrap;html=1;fontSize=27;fillColor=#FFFFFF;align=left;fontColor=none;noLabel=1;labelBackgroundColor=none;strokeColor=none;sketch=1;fontFamily=Architects Daughter;fontSource=https%3A%2F%2Ffonts.googleapis.com%2Fcss%3Ffamily%3DArchitects%2BDaughter;" parent="AAQ9BwyIkS6VjVYWZHyZ-1" vertex="1"><mxGeometry x="-120" y="80" width="1070" height="680" as="geometry"/></mxCell><mxCell id="xgfi9Fixae9f6lbO9hQ0-0" value="" style="whiteSpace=wrap;html=1;aspect=fixed;strokeWidth=4;sketch=1;fontFamily=Architects Daughter;fontSource=https%3A%2F%2Ffonts.googleapis.com%2Fcss%3Ffamily%3DArchitects%2BDaughter;" parent="AAQ9BwyIkS6VjVYWZHyZ-1" vertex="1"><mxGeometry x="80" y="120" width="80" height="80" as="geometry"/></mxCell><mxCell id="xgfi9Fixae9f6lbO9hQ0-1" value="" style="verticalLabelPosition=bottom;verticalAlign=top;html=1;shape=mxgraph.basic.tick;fillColor=#00CC00;strokeColor=#82b366;sketch=1;fontFamily=Architects Daughter;fontSource=https%3A%2F%2Ffonts.googleapis.com%2Fcss%3Ffamily%3DArchitects%2BDaughter;" parent="AAQ9BwyIkS6VjVYWZHyZ-1" vertex="1"><mxGeometry x="90" y="90" width="85" height="100" as="geometry"/></mxCell><mxCell id="xgfi9Fixae9f6lbO9hQ0-2" value="Decentralize business &lt;br&gt;into domains" style="text;html=1;strokeColor=none;fillColor=none;align=left;verticalAlign=middle;whiteSpace=wrap;rounded=0;fontSize=27;sketch=1;fontFamily=Architects Daughter;fontSource=https%3A%2F%2Ffonts.googleapis.com%2Fcss%3Ffamily%3DArchitects%2BDaughter;" parent="AAQ9BwyIkS6VjVYWZHyZ-1" vertex="1"><mxGeometry x="175" y="145" width="435" height="30" as="geometry"/></mxCell><mxCell id="xgfi9Fixae9f6lbO9hQ0-3" value="" style="whiteSpace=wrap;html=1;aspect=fixed;strokeWidth=4;sketch=1;fontFamily=Architects Daughter;fontSource=https%3A%2F%2Ffonts.googleapis.com%2Fcss%3Ffamily%3DArchitects%2BDaughter;" parent="AAQ9BwyIkS6VjVYWZHyZ-1" vertex="1"><mxGeometry x="80" y="250" width="80" height="80" as="geometry"/></mxCell><mxCell id="xgfi9Fixae9f6lbO9hQ0-4" value="" style="verticalLabelPosition=bottom;verticalAlign=top;html=1;shape=mxgraph.basic.tick;fillColor=#00CC00;strokeColor=#82b366;sketch=1;fontFamily=Architects Daughter;fontSource=https%3A%2F%2Ffonts.googleapis.com%2Fcss%3Ffamily%3DArchitects%2BDaughter;" parent="AAQ9BwyIkS6VjVYWZHyZ-1" vertex="1"><mxGeometry x="90" y="220" width="85" height="100" as="geometry"/></mxCell><mxCell id="xgfi9Fixae9f6lbO9hQ0-5" value="Decentralize engineering &lt;br&gt;into autonomous teams" style="text;html=1;strokeColor=none;fillColor=none;align=left;verticalAlign=middle;whiteSpace=wrap;rounded=0;fontSize=27;sketch=1;fontFamily=Architects Daughter;fontSource=https%3A%2F%2Ffonts.googleapis.com%2Fcss%3Ffamily%3DArchitects%2BDaughter;" parent="AAQ9BwyIkS6VjVYWZHyZ-1" vertex="1"><mxGeometry x="175" y="275" width="405" height="30" as="geometry"/></mxCell><mxCell id="xgfi9Fixae9f6lbO9hQ0-6" value="" style="whiteSpace=wrap;html=1;aspect=fixed;strokeWidth=4;sketch=1;fontFamily=Architects Daughter;fontSource=https%3A%2F%2Ffonts.googleapis.com%2Fcss%3Ffamily%3DArchitects%2BDaughter;" parent="AAQ9BwyIkS6VjVYWZHyZ-1" vertex="1"><mxGeometry x="80" y="380" width="80" height="80" as="geometry"/></mxCell><mxCell id="xgfi9Fixae9f6lbO9hQ0-7" value="" style="verticalLabelPosition=bottom;verticalAlign=top;html=1;shape=mxgraph.basic.tick;fillColor=#00CC00;strokeColor=#82b366;sketch=1;fontFamily=Architects Daughter;fontSource=https%3A%2F%2Ffonts.googleapis.com%2Fcss%3Ffamily%3DArchitects%2BDaughter;" parent="AAQ9BwyIkS6VjVYWZHyZ-1" vertex="1"><mxGeometry x="90" y="350" width="85" height="100" as="geometry"/></mxCell><mxCell id="xgfi9Fixae9f6lbO9hQ0-8" value="Decentralize monolith &lt;br&gt;into microservices" style="text;html=1;strokeColor=none;fillColor=none;align=left;verticalAlign=middle;whiteSpace=wrap;rounded=0;fontSize=27;sketch=1;fontFamily=Architects Daughter;fontSource=https%3A%2F%2Ffonts.googleapis.com%2Fcss%3Ffamily%3DArchitects%2BDaughter;" parent="AAQ9BwyIkS6VjVYWZHyZ-1" vertex="1"><mxGeometry x="175" y="405" width="455" height="30" as="geometry"/></mxCell><mxCell id="xgfi9Fixae9f6lbO9hQ0-9" value="" style="whiteSpace=wrap;html=1;aspect=fixed;strokeWidth=4;sketch=1;fontFamily=Architects Daughter;fontSource=https%3A%2F%2Ffonts.googleapis.com%2Fcss%3Ffamily%3DArchitects%2BDaughter;" parent="AAQ9BwyIkS6VjVYWZHyZ-1" vertex="1"><mxGeometry x="80" y="660" width="80" height="80" as="geometry"/></mxCell><mxCell id="xgfi9Fixae9f6lbO9hQ0-10" value="Decentralize data lake &lt;br&gt;into Data Mesh" style="text;html=1;strokeColor=none;fillColor=none;align=left;verticalAlign=middle;whiteSpace=wrap;rounded=0;fontSize=27;sketch=1;fontFamily=Architects Daughter;fontSource=https%3A%2F%2Ffonts.googleapis.com%2Fcss%3Ffamily%3DArchitects%2BDaughter;" parent="AAQ9BwyIkS6VjVYWZHyZ-1" vertex="1"><mxGeometry x="175" y="685" width="395" height="30" as="geometry"/></mxCell><mxCell id="WYw05qr1-3hL1uv3pTQN-2" value="" style="endArrow=none;dashed=1;html=1;rounded=0;fontSize=27;fontColor=none;sketch=1;fontFamily=Architects Daughter;fontSource=https%3A%2F%2Ffonts.googleapis.com%2Fcss%3Ffamily%3DArchitects%2BDaughter;" parent="AAQ9BwyIkS6VjVYWZHyZ-1" edge="1"><mxGeometry width="50" height="50" relative="1" as="geometry"><mxPoint x="62.5" y="630" as="sourcePoint"/><mxPoint x="742.5" y="630" as="targetPoint"/></mxGeometry></mxCell><mxCell id="WYw05qr1-3hL1uv3pTQN-5" value="scale up software development" style="text;html=1;strokeColor=none;fillColor=none;align=center;verticalAlign=middle;whiteSpace=wrap;rounded=0;labelBackgroundColor=none;fontSize=27;fontColor=none;sketch=1;fontFamily=Architects Daughter;fontSource=https%3A%2F%2Ffonts.googleapis.com%2Fcss%3Ffamily%3DArchitects%2BDaughter;" parent="AAQ9BwyIkS6VjVYWZHyZ-1" vertex="1"><mxGeometry x="590" y="275" width="80" height="30" as="geometry"/></mxCell><mxCell id="WYw05qr1-3hL1uv3pTQN-6" value="" style="endArrow=none;dashed=1;html=1;rounded=0;fontSize=27;fontColor=none;sketch=1;fontFamily=Architects Daughter;fontSource=https%3A%2F%2Ffonts.googleapis.com%2Fcss%3Ffamily%3DArchitects%2BDaughter;" parent="AAQ9BwyIkS6VjVYWZHyZ-1" edge="1"><mxGeometry width="50" height="50" relative="1" as="geometry"><mxPoint x="508" y="110" as="sourcePoint"/><mxPoint x="510" y="606" as="targetPoint"/></mxGeometry></mxCell><mxCell id="WYw05qr1-3hL1uv3pTQN-7" value="scale up&lt;br&gt;data analytics" style="text;html=1;strokeColor=none;fillColor=none;align=center;verticalAlign=middle;whiteSpace=wrap;rounded=0;labelBackgroundColor=none;fontSize=27;fontColor=none;sketch=1;fontFamily=Architects Daughter;fontSource=https%3A%2F%2Ffonts.googleapis.com%2Fcss%3Ffamily%3DArchitects%2BDaughter;" parent="AAQ9BwyIkS6VjVYWZHyZ-1" vertex="1"><mxGeometry x="550" y="685" width="190" height="30" as="geometry"/></mxCell><mxCell id="WYw05qr1-3hL1uv3pTQN-9" value="" style="whiteSpace=wrap;html=1;aspect=fixed;strokeWidth=4;sketch=1;fontFamily=Architects Daughter;fontSource=https%3A%2F%2Ffonts.googleapis.com%2Fcss%3Ffamily%3DArchitects%2BDaughter;" parent="AAQ9BwyIkS6VjVYWZHyZ-1" vertex="1"><mxGeometry x="80" y="510" width="80" height="80" as="geometry"/></mxCell><mxCell id="WYw05qr1-3hL1uv3pTQN-10" value="" style="verticalLabelPosition=bottom;verticalAlign=top;html=1;shape=mxgraph.basic.tick;fillColor=#00CC00;strokeColor=#82b366;sketch=1;fontFamily=Architects Daughter;fontSource=https%3A%2F%2Ffonts.googleapis.com%2Fcss%3Ffamily%3DArchitects%2BDaughter;" parent="AAQ9BwyIkS6VjVYWZHyZ-1" vertex="1"><mxGeometry x="90" y="480" width="85" height="100" as="geometry"/></mxCell><mxCell id="WYw05qr1-3hL1uv3pTQN-11" value="Decentralize operations&lt;br&gt;into DevOps teams" style="text;html=1;strokeColor=none;fillColor=none;align=left;verticalAlign=middle;whiteSpace=wrap;rounded=0;fontSize=27;sketch=1;fontFamily=Architects Daughter;fontSource=https%3A%2F%2Ffonts.googleapis.com%2Fcss%3Ffamily%3DArchitects%2BDaughter;" parent="AAQ9BwyIkS6VjVYWZHyZ-1" vertex="1"><mxGeometry x="175" y="535" width="455" height="30" as="geometry"/></mxCell><mxCell id="WYw05qr1-3hL1uv3pTQN-12" value="" style="endArrow=none;dashed=1;html=1;rounded=0;fontSize=27;fontColor=none;entryX=0.853;entryY=1.167;entryDx=0;entryDy=0;entryPerimeter=0;sketch=1;fontFamily=Architects Daughter;fontSource=https%3A%2F%2Ffonts.googleapis.com%2Fcss%3Ffamily%3DArchitects%2BDaughter;" parent="AAQ9BwyIkS6VjVYWZHyZ-1" target="xgfi9Fixae9f6lbO9hQ0-10" edge="1"><mxGeometry width="50" height="50" relative="1" as="geometry"><mxPoint x="508" y="110" as="sourcePoint"/><mxPoint x="510" y="606" as="targetPoint"/></mxGeometry></mxCell></root></mxGraphModel></diagram></mxfile>